<svg width="125" height="15" viewBox="0 0 125 15" fill="none" xmlns="http://www.w3.org/2000/svg">
<path d="M5.83006 15C4.90466 15 4.11498 14.8882 3.46103 14.6645C2.81941 14.4276 2.28267 14.125 1.85081 13.7566C1.4313 13.3882 1.09198 13 0.83287 12.5921C0.586095 12.1842 0.401006 11.7961 0.277618 11.4276C0.16657 11.0592 0.092543 10.7632 0.0555267 10.5395C0.0185104 10.3026 0 10.1842 0 10.1842H3.23893C3.23893 10.1842 3.26361 10.2895 3.31297 10.5C3.36232 10.6974 3.47337 10.9276 3.64611 11.1908C3.83119 11.4539 4.10264 11.6908 4.46046 11.9013C4.83063 12.0987 5.32418 12.1974 5.94112 12.1974C6.70612 12.1974 7.25519 12.0329 7.58833 11.7039C7.93382 11.375 8.10657 11 8.10657 10.5789C8.10657 10.1974 7.97701 9.89474 7.7179 9.67105C7.47112 9.44737 7.06394 9.27632 6.49635 9.1579L4.66405 8.82237C3.89904 8.67763 3.17723 8.44737 2.4986 8.13158C1.8323 7.81579 1.28941 7.36842 0.869888 6.78947C0.462709 6.21053 0.259117 5.46053 0.259117 4.53947C0.259117 3.63158 0.46888 2.84211 0.888397 2.17105C1.32025 1.48684 1.93102 0.953948 2.7207 0.572369C3.51038 0.19079 4.44196 0 5.51543 0C6.35446 0 7.07012 0.111842 7.66238 0.335527C8.25464 0.546053 8.74818 0.822369 9.14302 1.16447C9.53786 1.49342 9.8525 1.84869 10.0869 2.23026C10.3337 2.59868 10.5126 2.95395 10.6237 3.29605C10.7471 3.63816 10.8273 3.91447 10.8643 4.125C10.9013 4.33553 10.9198 4.44079 10.9198 4.44079H7.75491C7.75491 4.44079 7.73023 4.36184 7.68087 4.20395C7.64385 4.0329 7.54515 3.84211 7.38474 3.63158C7.23668 3.4079 7.00841 3.21053 6.69994 3.03947C6.39147 2.86842 5.97196 2.7829 5.4414 2.7829C4.70107 2.7829 4.17667 2.95395 3.8682 3.29605C3.55973 3.625 3.4055 3.97368 3.4055 4.34211C3.4055 4.75 3.57207 5.05921 3.90522 5.26974C4.25071 5.48026 4.68256 5.63816 5.20078 5.74342L7.14413 6.09868C7.8968 6.24342 8.58777 6.48684 9.21705 6.82895C9.84632 7.17105 10.3522 7.63158 10.7347 8.21053C11.1172 8.78947 11.3085 9.50658 11.3085 10.3618C11.3085 11.2434 11.0925 12.0395 10.6607 12.75C10.2412 13.4474 9.62423 14 8.80988 14.4079C7.99552 14.8026 7.00224 15 5.83006 15Z" fill="#333333"/>
<path d="M13.9877 14.8026V0.197369L19.8918 0.197369C21.0393 0.197369 21.9955 0.434211 22.7605 0.907895C23.5255 1.38158 24.0931 1.99342 24.4633 2.74342C24.8458 3.49342 25.037 4.27632 25.037 5.09211C25.037 5.92105 24.8458 6.71053 24.4633 7.46053C24.0931 8.21053 23.5255 8.82895 22.7605 9.31579C21.9955 9.78947 21.0393 10.0263 19.8918 10.0263H17.1896V14.8026H13.9877ZM19.8732 3.17763L17.1896 3.17763V7.06579H19.8732C20.5272 7.06579 21.0146 6.86184 21.3354 6.45395C21.6562 6.04605 21.8166 5.59868 21.8166 5.11184C21.8166 4.625 21.6562 4.18421 21.3354 3.78947C21.0146 3.38158 20.5272 3.17763 19.8732 3.17763Z" fill="#333333"/>
<path d="M34.188 15C33.0158 15 31.9917 14.7895 31.1156 14.3684C30.2396 13.9342 29.5054 13.3618 28.9132 12.6513C28.3332 11.9276 27.8952 11.1184 27.5991 10.2237C27.303 9.32895 27.1549 8.41447 27.1549 7.48026C27.1549 6.54605 27.303 5.63816 27.5991 4.75658C27.8952 3.86184 28.3332 3.05921 28.9132 2.34868C29.5054 1.63816 30.2396 1.07237 31.1156 0.651317C31.9917 0.217106 33.0158 0 34.188 0C35.3478 0 36.3658 0.217106 37.2418 0.651317C38.1179 1.07237 38.8459 1.63816 39.4258 2.34868C40.018 3.05921 40.4622 3.86184 40.7584 4.75658C41.0545 5.63816 41.2026 6.54605 41.2026 7.48026C41.2026 8.41447 41.0545 9.32895 40.7584 10.2237C40.4622 11.1184 40.018 11.9276 39.4258 12.6513C38.8459 13.3618 38.1179 13.9342 37.2418 14.3684C36.3658 14.7895 35.3478 15 34.188 15ZM34.188 11.9408C34.99 11.9408 35.6625 11.7237 36.2054 11.2895C36.7606 10.8553 37.174 10.3026 37.4454 9.63158C37.7292 8.94737 37.8711 8.23026 37.8711 7.48026C37.8711 6.74342 37.7292 6.03947 37.4454 5.36842C37.174 4.68421 36.7606 4.125 36.2054 3.69079C35.6625 3.25658 34.99 3.03947 34.188 3.03947C33.3736 3.03947 32.6888 3.25658 32.1336 3.69079C31.5907 4.125 31.1835 4.68421 30.9121 5.36842C30.6406 6.03947 30.5049 6.74342 30.5049 7.48026C30.5049 8.23026 30.6406 8.94737 30.9121 9.63158C31.1835 10.3026 31.5907 10.8553 32.1336 11.2895C32.6888 11.7237 33.3736 11.9408 34.188 11.9408Z" fill="#333333"/>
<path d="M43.9622 14.8026V0.197369L49.7552 0.197369C50.767 0.197369 51.6492 0.38158 52.4019 0.750001C53.1545 1.11842 53.7345 1.64474 54.1416 2.32895C54.5488 3.01316 54.7524 3.82895 54.7524 4.77632C54.7524 5.75 54.5303 6.58553 54.0861 7.2829C53.6542 7.98026 53.0435 8.50658 52.2538 8.86184L55.0855 14.8026L51.5505 14.8026L49.0149 9.33553H47.1641V14.8026H43.9622ZM49.7182 3.13816L47.1641 3.13816V6.59211H49.7182C50.2734 6.59211 50.7176 6.43421 51.0508 6.11842C51.3839 5.80263 51.5505 5.38816 51.5505 4.875C51.5505 4.34868 51.3839 3.92763 51.0508 3.61184C50.7176 3.29605 50.2734 3.13816 49.7182 3.13816Z" fill="#333333"/>
<path d="M61.2765 14.8026V3.15789H57.1122V0.197369L68.6613 0.197369V3.15789H64.4969V14.8026H61.2765Z" fill="#333333"/>
<path d="M68.8228 14.8026L73.4313 0.197369L77.7252 0.197369L82.3337 14.8026L78.9837 14.8026L78.1879 12.1382H72.9686L72.1727 14.8026H68.8228ZM73.857 9.2171H77.318L75.5782 3.47368L73.857 9.2171Z" fill="#333333"/>
<path d="M84.9114 14.8026V0.197369L90.7044 0.197369C91.7162 0.197369 92.5984 0.38158 93.3511 0.750001C94.1038 1.11842 94.6837 1.64474 95.0909 2.32895C95.498 3.01316 95.7016 3.82895 95.7016 4.77632C95.7016 5.75 95.4795 6.58553 95.0353 7.2829C94.6035 7.98026 93.9927 8.50658 93.203 8.86184L96.0348 14.8026H92.4997L89.9641 9.33553H88.1133V14.8026H84.9114ZM90.6674 3.13816H88.1133V6.59211L90.6674 6.59211C91.2227 6.59211 91.6669 6.43421 92 6.11842C92.3332 5.80263 92.4997 5.38816 92.4997 4.875C92.4997 4.34868 92.3332 3.92763 92 3.61184C91.6669 3.29605 91.2227 3.13816 90.6674 3.13816Z" fill="#333333"/>
<path d="M99.266 14.8026V0.197369L108.946 0.197369V3.15789L102.468 3.15789V5.98026L108.113 5.98026V8.80263H102.468V11.8421H109.038V14.8026H99.266Z" fill="#333333"/>
<path d="M111.489 14.8026L116.098 0.197369L120.391 0.197369L125 14.8026H121.65L120.854 12.1382H115.635L114.839 14.8026H111.489ZM116.523 9.2171H119.984L118.245 3.47368L116.523 9.2171Z" fill="#333333"/>
<path d="M5.83006 15C4.90466 15 4.11498 14.8882 3.46103 14.6645C2.81941 14.4276 2.28267 14.125 1.85081 13.7566C1.4313 13.3882 1.09198 13 0.83287 12.5921C0.586095 12.1842 0.401006 11.7961 0.277618 11.4276C0.16657 11.0592 0.092543 10.7632 0.0555267 10.5395C0.0185104 10.3026 0 10.1842 0 10.1842H3.23893C3.23893 10.1842 3.26361 10.2895 3.31297 10.5C3.36232 10.6974 3.47337 10.9276 3.64611 11.1908C3.83119 11.4539 4.10264 11.6908 4.46046 11.9013C4.83063 12.0987 5.32418 12.1974 5.94112 12.1974C6.70612 12.1974 7.25519 12.0329 7.58833 11.7039C7.93382 11.375 8.10657 11 8.10657 10.5789C8.10657 10.1974 7.97701 9.89474 7.7179 9.67105C7.47112 9.44737 7.06394 9.27632 6.49635 9.1579L4.66405 8.82237C3.89904 8.67763 3.17723 8.44737 2.4986 8.13158C1.8323 7.81579 1.28941 7.36842 0.869888 6.78947C0.462709 6.21053 0.259117 5.46053 0.259117 4.53947C0.259117 3.63158 0.46888 2.84211 0.888397 2.17105C1.32025 1.48684 1.93102 0.953948 2.7207 0.572369C3.51038 0.19079 4.44196 0 5.51543 0C6.35446 0 7.07012 0.111842 7.66238 0.335527C8.25464 0.546053 8.74818 0.822369 9.14302 1.16447C9.53786 1.49342 9.8525 1.84869 10.0869 2.23026C10.3337 2.59868 10.5126 2.95395 10.6237 3.29605C10.7471 3.63816 10.8273 3.91447 10.8643 4.125C10.9013 4.33553 10.9198 4.44079 10.9198 4.44079H7.75491C7.75491 4.44079 7.73023 4.36184 7.68087 4.20395C7.64385 4.0329 7.54515 3.84211 7.38474 3.63158C7.23668 3.4079 7.00841 3.21053 6.69994 3.03947C6.39147 2.86842 5.97196 2.7829 5.4414 2.7829C4.70107 2.7829 4.17667 2.95395 3.8682 3.29605C3.55973 3.625 3.4055 3.97368 3.4055 4.34211C3.4055 4.75 3.57207 5.05921 3.90522 5.26974C4.25071 5.48026 4.68256 5.63816 5.20078 5.74342L7.14413 6.09868C7.8968 6.24342 8.58777 6.48684 9.21705 6.82895C9.84632 7.17105 10.3522 7.63158 10.7347 8.21053C11.1172 8.78947 11.3085 9.50658 11.3085 10.3618C11.3085 11.2434 11.0925 12.0395 10.6607 12.75C10.2412 13.4474 9.62423 14 8.80988 14.4079C7.99552 14.8026 7.00224 15 5.83006 15Z" fill="#333333"/>
</svg>
