<svg width="74" height="74" viewBox="0 0 74 74" fill="none" xmlns="http://www.w3.org/2000/svg">
<path d="M28.6667 48.9464V25.0531C28.6672 24.7541 28.7481 24.4608 28.9009 24.2039C29.0537 23.9469 29.2728 23.7358 29.5353 23.5927C29.7977 23.4495 30.0938 23.3796 30.3926 23.3902C30.6913 23.4008 30.9817 23.4916 31.2334 23.6531L49.82 35.5964C50.0554 35.7472 50.249 35.9547 50.3831 36.2C50.5173 36.4452 50.5876 36.7202 50.5876 36.9997C50.5876 37.2792 50.5173 37.5542 50.3831 37.7995C50.249 38.0447 50.0554 38.2523 49.82 38.4031L31.2334 50.3497C30.9817 50.5111 30.6913 50.6019 30.3926 50.6126C30.0938 50.6232 29.7977 50.5533 29.5353 50.4101C29.2728 50.267 29.0537 50.0558 28.9009 49.7989C28.7481 49.542 28.6672 49.2487 28.6667 48.9497V48.9464Z" fill="white" fill-opacity="0.8"/>
<path d="M0.333374 36.9997C0.333374 16.7497 16.75 0.333008 37 0.333008C57.25 0.333008 73.6667 16.7497 73.6667 36.9997C73.6667 57.2497 57.25 73.6663 37 73.6663C16.75 73.6663 0.333374 57.2497 0.333374 36.9997ZM37 5.33301C28.6015 5.33301 20.547 8.66931 14.6083 14.608C8.66967 20.5466 5.33337 28.6012 5.33337 36.9997C5.33337 45.3982 8.66967 53.4527 14.6083 59.3914C20.547 65.33 28.6015 68.6663 37 68.6663C45.3986 68.6663 53.4531 65.33 59.3918 59.3914C65.3304 53.4527 68.6667 45.3982 68.6667 36.9997C68.6667 28.6012 65.3304 20.5466 59.3918 14.608C53.4531 8.66931 45.3986 5.33301 37 5.33301Z" fill="white" fill-opacity="0.8"/>
</svg>
