<svg width="18" height="18" viewBox="0 0 18 18" fill="none" xmlns="http://www.w3.org/2000/svg">
<path d="M9.00083 0.666626C13.6033 0.666626 17.3342 4.39746 17.3342 8.99996C17.3342 13.6025 13.6033 17.3333 9.00083 17.3333C7.52812 17.3358 6.08131 16.9461 4.80916 16.2041L0.670827 17.3333L1.79749 13.1933C1.05496 11.9207 0.664912 10.4733 0.667493 8.99996C0.667493 4.39746 4.39833 0.666626 9.00083 0.666626ZM6.16083 5.08329L5.99416 5.08996C5.8864 5.09738 5.78112 5.12569 5.68416 5.17329C5.59381 5.22455 5.51129 5.28854 5.43916 5.36329C5.33916 5.45746 5.28249 5.53913 5.22166 5.61829C4.91343 6.01905 4.74747 6.51105 4.74999 7.01663C4.75166 7.42496 4.85833 7.82246 5.02499 8.19413C5.36583 8.94579 5.92666 9.74163 6.66666 10.4791C6.84499 10.6566 7.01999 10.835 7.20833 11.0008C8.12785 11.8103 9.22356 12.3941 10.4083 12.7058L10.8817 12.7783C11.0358 12.7866 11.19 12.775 11.345 12.7675C11.5876 12.7547 11.8246 12.689 12.0392 12.575C12.1482 12.5186 12.2547 12.4574 12.3583 12.3916C12.3583 12.3916 12.3936 12.3677 12.4625 12.3166C12.575 12.2333 12.6442 12.1741 12.7375 12.0766C12.8075 12.0044 12.8658 11.9205 12.9125 11.825C12.9775 11.6891 13.0425 11.43 13.0692 11.2141C13.0892 11.0491 13.0833 10.9591 13.0808 10.9033C13.0775 10.8141 13.0033 10.7216 12.9225 10.6825L12.4375 10.465C12.4375 10.465 11.7125 10.1491 11.2692 9.94746C11.2228 9.92726 11.1731 9.91568 11.1225 9.91329C11.0655 9.90733 11.0078 9.91369 10.9535 9.93195C10.8991 9.95021 10.8493 9.97994 10.8075 10.0191C10.8033 10.0175 10.7475 10.065 10.145 10.795C10.1104 10.8414 10.0628 10.8765 10.0082 10.8958C9.95355 10.9151 9.89442 10.9177 9.83833 10.9033C9.78402 10.8888 9.73082 10.8704 9.67916 10.8483C9.57583 10.805 9.53999 10.7883 9.46916 10.7583C8.99072 10.5499 8.54786 10.2679 8.15666 9.92246C8.05166 9.83079 7.95416 9.73079 7.85416 9.63413C7.52634 9.32013 7.24062 8.96495 7.00416 8.57746L6.95499 8.49829C6.92021 8.44479 6.89169 8.38747 6.86999 8.32746C6.83833 8.20496 6.92083 8.10663 6.92083 8.10663C6.92083 8.10663 7.12333 7.88496 7.21749 7.76496C7.30916 7.64829 7.38666 7.53496 7.43666 7.45413C7.53499 7.29579 7.56583 7.13329 7.51416 7.00746C7.28083 6.43746 7.03972 5.87051 6.79083 5.30663C6.74166 5.19496 6.59583 5.11496 6.46333 5.09913C6.41833 5.09357 6.37333 5.08913 6.32833 5.08579C6.21643 5.07937 6.10424 5.08049 5.99249 5.08913L6.16083 5.08329Z" fill="#333333"/>
</svg>
